<?xml version="1.0" encoding="UTF-8"?>
<svg version="1.1" xmlns="http://www.w3.org/2000/svg" width="322" height="236">
<path d="M0 0 C2 1 2 1 2.71484375 2.765625 C3.94001587 12.36560377 -5.76163686 27.62900739 -11.37890625 35.2109375 C-17.84870563 42.65067386 -17.84870563 42.65067386 -22 43 C-24.10546875 42.546875 -24.10546875 42.546875 -26.1875 41.75 C-26.88230469 41.49734375 -27.57710937 41.2446875 -28.29296875 40.984375 C-30 40 -30 40 -31 37 C-28.69267583 33.87832613 -26.27706967 31.27014293 -23.5 28.5625 C-20.58383227 25.57342808 -18.36117921 22.44057543 -16 19 C-17.485 19.495 -17.485 19.495 -19 20 C-28.98356358 20.99185241 -38.35940949 18.99019634 -48.08203125 16.97265625 C-54.02559533 15.75616762 -59.91269574 14.84238587 -66 14.9375 C-66.763125 14.94652344 -67.52625 14.95554687 -68.3125 14.96484375 C-68.869375 14.97644531 -69.42625 14.98804688 -70 15 C-60.50970659 31.81227476 -46.1237267 39.62722014 -29.70556641 48.49902344 C-15.7029385 56.06635079 -3.38341726 63.81061826 8 75 C8.7425 75.70640625 9.485 76.4128125 10.25 77.140625 C16.66825503 83.70930789 20.33705336 91.69059995 24 100 C24.38542969 100.84175781 24.77085937 101.68351562 25.16796875 102.55078125 C29.56442045 114.17144935 28.44912367 131.63351091 24 143 C21.98658157 146.6366395 19.65052103 149.80507735 17 153 C16.44054687 153.69738281 15.88109375 154.39476562 15.3046875 155.11328125 C11.0024317 160.26598296 6.15103941 164.70900846 1 169 C0.43667969 169.474375 -0.12664062 169.94875 -0.70703125 170.4375 C-11.37295034 178.74186523 -26.6217323 182.80269606 -40 182 C-40.87867729 178.26562152 -41.08912219 174.83225427 -41 171 C-36.87570633 169.19711727 -32.67948161 168.14181285 -28.3125 167.125 C-18.55029598 164.73681182 -10.69650693 162.08760206 -2.91015625 155.48828125 C-1 154 -1 154 2 153 C3.06653833 151.18596394 3.06653833 151.18596394 4 149 C4.97169265 147.4328411 5.95142482 145.87064933 6.9375 144.3125 C13.92628878 132.72133813 15.44326453 120.13441152 12.8125 106.92578125 C7.53149808 87.90909647 -7.53658677 75.39754022 -24 66 C-27.78954245 63.97573758 -31.61228446 62.01832879 -35.4375 60.0625 C-54.7681872 50.14202264 -76.23323244 37.90503395 -83.5703125 15.984375 C-84.35397057 12.36529953 -84.58528898 8.66375698 -84 5 C-79.72392177 0.72392177 -73.42927173 0.8536885 -67.69140625 0.7890625 C-59.70187842 0.84003072 -52.0204219 2.07964541 -44.1875 3.5 C-29.73237913 6.08654138 -16.67799631 7.53144614 -2.8125 1.25 C-1.884375 0.8375 -0.95625 0.425 0 0 Z " fill="#31CB9A" transform="translate(198,40)"/>
<path d="M0 0 C0.80630859 0.03544922 1.61261719 0.07089844 2.44335938 0.10742188 C3.21873047 0.15060547 3.99410156 0.19378906 4.79296875 0.23828125 C5.84327271 0.29495972 5.84327271 0.29495972 6.91479492 0.3527832 C8.8125 0.6875 8.8125 0.6875 11.8125 2.6875 C11.8125 4.0075 11.8125 5.3275 11.8125 6.6875 C12.43125 7.43 13.05 8.1725 13.6875 8.9375 C18.46023448 15.11397991 18.16093408 21.85177609 17.41015625 29.31640625 C14.35615411 46.5425752 1.12775703 61.24711651 -12.375 71.54296875 C-14.1875 72.6875 -14.1875 72.6875 -16.1875 72.6875 C-16.1875 73.3475 -16.1875 74.0075 -16.1875 74.6875 C-17.88607852 75.41891637 -19.59699273 76.1217224 -21.3125 76.8125 C-22.26382813 77.20695312 -23.21515625 77.60140625 -24.1953125 78.0078125 C-28.96193536 79.09057017 -31.91966691 77.40974918 -36.046875 75.05859375 C-50.67749152 65.27189756 -68.25337927 51.3807597 -71.94140625 33.0546875 C-72.78701527 24.9207341 -73.59657954 16.89207986 -69.1875 9.6875 C-64.27123741 3.8414779 -58.04184491 1.27878111 -50.58984375 0.37109375 C-44.15453296 0.08405111 -38.98091296 1.46716858 -33.01171875 3.8125 C-28.043366 5.35179601 -24.2962688 5.09613049 -19.6875 2.75 C-13.19291248 -0.53259043 -7.08916824 -0.41971556 0 0 Z M-55.1875 12.6875 C-56.66179785 15.24538073 -57.48925015 17.8280006 -58.1875 20.6875 C-58.5175 20.6875 -58.8475 20.6875 -59.1875 20.6875 C-60.20851891 32.99484754 -60.20851891 32.99484754 -54.94921875 43.74609375 C-54.36785156 44.38675781 -53.78648437 45.02742188 -53.1875 45.6875 C-52.39279297 46.69490234 -52.39279297 46.69490234 -51.58203125 47.72265625 C-45.41298212 55.32773106 -37.84352807 62.27349298 -28.1875 64.6875 C-23.05607006 64.3844073 -19.84763282 62.45355293 -15.9375 59.3125 C-15.09541992 58.64528931 -15.09541992 58.64528931 -14.23632812 57.96459961 C-3.37349632 49.13777814 5.11421266 39.61663153 6.8125 25.3125 C7.20538684 20.75746823 6.50771123 18.39662403 3.8125 14.6875 C-0.00885384 11.7153359 -3.37044469 10.84543624 -8.1875 10.6875 C-14.37836079 11.82046799 -19.35550874 14.06296179 -24.3984375 17.796875 C-26.1875 18.6875 -26.1875 18.6875 -28.08203125 18.515625 C-30.72085433 17.47772056 -33.05628049 16.12538871 -35.5 14.6875 C-42.22441451 10.97255121 -47.91146846 9.18940791 -55.1875 12.6875 Z " fill="#30CB9A" transform="translate(182.1875,121.3125)"/>
<path d="M0 0 C0.86625 0.34546875 1.7325 0.6909375 2.625 1.046875 C4.96184689 2.23067244 6.40974039 3.17847761 8 5.25 C8 6.24 8 7.23 8 8.25 C2.5861666 11.14577136 2.5861666 11.14577136 -0.39453125 11.67578125 C-10.25308527 13.84850605 -17.13168447 21.72362513 -22.5703125 29.67578125 C-23.04210937 30.19527344 -23.51390625 30.71476562 -24 31.25 C-24.99 31.25 -25.98 31.25 -27 31.25 C-27.2784375 31.97058594 -27.556875 32.69117188 -27.84375 33.43359375 C-28.95121 36.1311568 -30.20746052 38.69983636 -31.5 41.3125 C-37.92619921 55.41601686 -37.34642989 71.25385351 -32.12109375 85.67578125 C-30.1246046 89.97783946 -27.41027424 93.35787643 -24.171875 96.8046875 C-23 98.25 -23 98.25 -23 100.25 C-22.484375 100.476875 -21.96875 100.70375 -21.4375 100.9375 C-19 102.25 -19 102.25 -16.125 104.5625 C-7.93025984 110.49843358 2.80993627 112.65085529 12.55078125 114.671875 C15 115.25 15 115.25 16 116.25 C16.0979057 117.74738124 16.12974864 119.24942892 16.125 120.75 C16.12886719 121.97203125 16.12886719 121.97203125 16.1328125 123.21875 C16 125.25 16 125.25 15 126.25 C-0.70989573 127.92829009 -14.87448082 121.79567354 -27.1875 112.5 C-38.85646049 102.73579851 -46.81636355 89.38987939 -49 74.25 C-50.37584182 55.90544246 -47.17680267 38.07753452 -35.6875 23.26953125 C-33.52446192 20.85438232 -31.27678959 18.5569743 -29 16.25 C-28.11739619 15.0890751 -27.24174414 13.92281316 -26.375 12.75 C-20.6758765 5.96300962 -8.63341792 -3.54586807 0 0 Z " fill="#32CA9A" transform="translate(134,94.75)"/>
<path d="M0 0 C3.16115776 1.36983503 3.9927092 1.9890638 6 5 C5.71352467 7.33954855 5.36950465 9.67212073 5 12 C4.79242783 16.61848074 4.85293725 21.05226229 5.5625 25.625 C6.08871879 29.68440212 5.63684933 32.96662094 5 37 C3.02 37.495 3.02 37.495 1 38 C0.67 39.32 0.34 40.64 0 42 C-0.66 42 -1.32 42 -2 42 C-2 40.68 -2 39.36 -2 38 C-2.66 38 -3.32 38 -4 38 C-4 37.34 -4 36.68 -4 36 C-4.66 36 -5.32 36 -6 36 C-7.55461793 30.74391082 -7.12939916 25.42860276 -7 20 C-6.98324219 18.77152344 -6.96648437 17.54304688 -6.94921875 16.27734375 C-6.56141235 5.74008984 -6.56141235 5.74008984 -3.5 2.6875 C-2.2625 1.8521875 -2.2625 1.8521875 -1 1 C-0.67 0.67 -0.34 0.34 0 0 Z " fill="#2BCD9A" transform="translate(93,142)"/>
<path d="M0 0 C2.19398856 3.29098284 2.21503664 3.84832581 1.75 7.5625 C1.66234375 8.34753906 1.5746875 9.13257813 1.484375 9.94140625 C1 12 1 12 -1 14 C-1.99 14 -2.98 14 -4 14 C-4 14.66 -4 15.32 -4 16 C-6.97 16.33 -9.94 16.66 -13 17 C-13 17.66 -13 18.32 -13 19 C-18.28 19 -23.56 19 -29 19 C-29 16.69 -29 14.38 -29 12 C-28.443125 11.81824219 -27.88625 11.63648438 -27.3125 11.44921875 C-24.87077309 10.6449337 -22.43461583 9.82555262 -20 9 C-19.35417969 8.7834375 -18.70835937 8.566875 -18.04296875 8.34375 C-11.76521385 6.12340721 -5.91116602 3.0442505 0 0 Z " fill="#2FCC99" transform="translate(189,200)"/>
<path d="M0 0 C-5.29798964 2.08135307 -10.45563871 3.71291613 -16 5 C-16.33 7.31 -16.66 9.62 -17 12 C-11.72 12 -6.44 12 -1 12 C-1 11.34 -1 10.68 -1 10 C3.455 9.505 3.455 9.505 8 9 C2.77509944 14.22490056 -8.23163251 15.03756678 -15.375 15.0625 C-16.57125 15.041875 -17.7675 15.02125 -19 15 C-19.87867729 11.26562152 -20.08912219 7.83225427 -20 4 C-16.1670604 2.35320231 -12.3728337 1.26160879 -8.3125 0.3125 C-7.17425781 0.04050781 -6.03601563 -0.23148438 -4.86328125 -0.51171875 C-2 -1 -2 -1 0 0 Z " fill="#55B89B" transform="translate(177,207)"/>
<path d="M0 0 C1.54716663 3.6018694 0.56287259 5.96193907 -0.8125 9.5 C-1.16957031 10.4384375 -1.52664062 11.376875 -1.89453125 12.34375 C-2.84266932 14.62196162 -3.86004556 16.81293809 -5 19 C-5.66 19 -6.32 19 -7 19 C-7.33 18.01 -7.66 17.02 -8 16 C-7.01 16 -6.02 16 -5 16 C-4.938125 14.72125 -4.87625 13.4425 -4.8125 12.125 C-4.77769531 11.40570313 -4.74289063 10.68640625 -4.70703125 9.9453125 C-4.80371094 9.30335937 -4.90039062 8.66140625 -5 8 C-8.6441774 5.5705484 -10.71241272 5.83820425 -15 6 C-15 5.34 -15 4.68 -15 4 C-12.87875034 3.13656176 -10.75286928 2.28449352 -8.625 1.4375 C-6.84996094 0.72400391 -6.84996094 0.72400391 -5.0390625 -0.00390625 C-2 -1 -2 -1 0 0 Z " fill="#43CCA4" transform="translate(200,41)"/>
<path d="M0 0 C0.33 0 0.66 0 1 0 C1 1.98 1 3.96 1 6 C5.455 5.505 5.455 5.505 10 5 C10.33 4.01 10.66 3.02 11 2 C10.49228528 7.96564796 8.61407872 12.63809899 6 18 C4.56911472 15.13822943 5.40008303 13.06624227 6 10 C4.68 10 3.36 10 2 10 C1.67 9.34 1.34 8.68 1 8 C0.76925781 8.60328125 0.53851563 9.2065625 0.30078125 9.828125 C-1.76622997 14.89352798 -3.42609417 17.79826592 -8 21 C-9.37368345 22.63356951 -10.71937515 24.2925002 -12 26 C-12.66 25.67 -13.32 25.34 -14 25 C-13.39671875 24.31035156 -12.7934375 23.62070313 -12.171875 22.91015625 C-6.2417566 15.93748477 -1.20006893 9.30053418 0 0 Z " fill="#41BD95" transform="translate(188,148)"/>
<path d="M0 0 C2.31 0.66 4.62 1.32 7 2 C5.83619516 6.80069497 2.89997799 9.65418519 -0.76953125 12.7421875 C-3.38862391 14.21915394 -4.42639285 14.25601928 -7.3125 13.5625 C-9.9060546 12.64186703 -11.66319102 11.55787265 -14 10 C-13.34 8.68 -12.68 7.36 -12 6 C-12 7.32 -12 8.64 -12 10 C-10.68 9.67 -9.36 9.34 -8 9 C-8 9.99 -8 10.98 -8 12 C-6.02 11.67 -4.04 11.34 -2 11 C-2.061875 9.1128125 -2.061875 9.1128125 -2.125 7.1875 C-2.2390374 3.70935927 -2.05925681 3.08888522 0 0 Z " fill="#32CB9A" transform="translate(181,69)"/>
<path d="M0 0 C6.4730534 7.86411072 7.36504237 17.50694995 7.375 27.3125 C7.37653076 28.1478125 7.37806152 28.983125 7.37963867 29.84375 C7.2846233 35.18584341 6.47706282 39.86572963 5 45 C4.34 44.34 3.68 43.68 3 43 C3.2683789 41.32164913 3.61278832 39.65497915 4 38 C4.08853546 36.2321306 4.13059216 34.46148981 4.1328125 32.69140625 C4.13410156 31.69689453 4.13539063 30.70238281 4.13671875 29.67773438 C4.13285156 28.64970703 4.12898437 27.62167969 4.125 26.5625 C4.12886719 25.53833984 4.13273438 24.51417969 4.13671875 23.45898438 C4.13033939 18.53092798 4.04637919 13.8415799 3 9 C2.34 9 1.68 9 1 9 C0.67 6.03 0.34 3.06 0 0 Z " fill="#52B298" transform="translate(218,133)"/>
<path d="M0 0 C7.875 0.875 7.875 0.875 9 2 C9.0979057 3.49738124 9.12974864 4.99942892 9.125 6.5 C9.12757813 7.3146875 9.13015625 8.129375 9.1328125 8.96875 C9 11 9 11 8 12 C6.14712498 12.07226502 4.29166122 12.0838122 2.4375 12.0625 C1.42558594 12.05347656 0.41367188 12.04445312 -0.62890625 12.03515625 C-1.41136719 12.02355469 -2.19382813 12.01195312 -3 12 C-2.67 11.34 -2.34 10.68 -2 10 C0.31 10.33 2.62 10.66 5 11 C4.34 8.36 3.68 5.72 3 3 C2.01 3.495 2.01 3.495 1 4 C0.34 3.34 -0.32 2.68 -1 2 C-0.67 1.34 -0.34 0.68 0 0 Z " fill="#3DBB98" transform="translate(141,209)"/>
<path d="M0 0 C1.25541557 3.76624671 0.37061958 5.37188934 -1 9 C-1.33 9 -1.66 9 -2 9 C-2.04898438 9.84304687 -2.09796875 10.68609375 -2.1484375 11.5546875 C-2.22320312 12.65039062 -2.29796875 13.74609375 -2.375 14.875 C-2.44460937 15.96554688 -2.51421875 17.05609375 -2.5859375 18.1796875 C-3 21 -3 21 -5 23 C-6.17544359 19.28709089 -6.13308799 15.74914744 -6.125 11.875 C-6.12757812 10.63492188 -6.13015625 9.39484375 -6.1328125 8.1171875 C-6 5 -6 5 -5 3 C-4.01 3 -3.02 3 -2 3 C-2 2.34 -2 1.68 -2 1 C-1.34 0.67 -0.68 0.34 0 0 Z " fill="#51C4A2" transform="translate(126,134)"/>
<path d="M0 0 C0.33 1.32 0.66 2.64 1 4 C0.01 4 -0.98 4 -2 4 C-0.68 4.33 0.64 4.66 2 5 C1.34 6.32 0.68 7.64 0 9 C-1.32 9 -2.64 9 -4 9 C-5.01866229 7.34467377 -6.01810813 5.67739862 -7 4 C-9.08533633 3.12177688 -9.08533633 3.12177688 -11 3 C-7.13828168 1.00255949 -4.44822596 0 0 0 Z " fill="#29CE9A" transform="translate(140,73)"/>
<path d="M0 0 C0.99 0.33 1.98 0.66 3 1 C2.34 1 1.68 1 1 1 C1.185625 1.969375 1.37125 2.93875 1.5625 3.9375 C1.706875 4.948125 1.85125 5.95875 2 7 C1 8 1 8 -2.0625 8.0625 C-3.031875 8.041875 -4.00125 8.02125 -5 8 C-5.33 7.34 -5.66 6.68 -6 6 C-6.99 6 -7.98 6 -9 6 C-9 4.35 -9 2.7 -9 1 C-8.2575 1.20625 -7.515 1.4125 -6.75 1.625 C-3.60314245 2.05411694 -2.71187889 1.44633541 0 0 Z " fill="#2BCE9B" transform="translate(178,73)"/>
<path d="M0 0 C0.66 0 1.32 0 2 0 C2 0.66 2 1.32 2 2 C5.49234244 2.09978121 8.59437148 1.77842938 12 1 C12.625 2.875 12.625 2.875 13 5 C12.34 5.66 11.68 6.32 11 7 C10.01 6.67 9.02 6.34 8 6 C8 6.99 8 7.98 8 9 C5.5625 8.25 5.5625 8.25 3 7 C2.1875 4.875 2.1875 4.875 2 3 C1.01 3 0.02 3 -1 3 C-0.67 2.01 -0.34 1.02 0 0 Z " fill="#2BCE99" transform="translate(132,180)"/>
<path d="M0 0 C1.32 0 2.64 0 4 0 C3.01 5.61 2.02 11.22 1 17 C-1.44932239 13.32601642 -2.1518748 10.76239877 -2.1875 6.4375 C-2.20167969 5.65246094 -2.21585937 4.86742187 -2.23046875 4.05859375 C-2 2 -2 2 0 0 Z " fill="#43C39B" transform="translate(116,43)"/>
<path d="M0 0 C1.32 0 2.64 0 4 0 C4.33 0.66 4.66 1.32 5 2 C6.98 1.67 8.96 1.34 11 1 C10.67 2.65 10.34 4.3 10 6 C10.928125 6.12375 11.85625 6.2475 12.8125 6.375 C16 7 16 7 19 9 C20.65549531 9.38499891 22.3222433 9.72793135 24 10 C24 10.66 24 11.32 24 12 C14.72555291 10.47959884 6.48401875 6.98278942 0 0 Z " fill="#45BE98" transform="translate(108,207)"/>
<path d="M0 0 C3.52067351 -0.08782542 7.04106144 -0.14066643 10.5625 -0.1875 C11.55314453 -0.21263672 12.54378906 -0.23777344 13.56445312 -0.26367188 C19.53095962 -0.32313872 23.71524416 0.17602808 29 3 C29 3.33 29 3.66 29 4 C19.3282261 3.04867798 9.66450409 2.02201635 0 1 C0 0.67 0 0.34 0 0 Z " fill="#43BB96" transform="translate(126,53)"/>
<path d="M0 0 C0.7425 0.53625 1.485 1.0725 2.25 1.625 C3.1575 2.07875 4.065 2.5325 5 3 C7.30287793 2.30859649 7.30287793 2.30859649 9 1 C10 3 10 3 9.25 5.5625 C8 8 8 8 5 9 C2.8125 8.0625 2.8125 8.0625 1 7 C1 5.35 1 3.7 1 2 C0.34 1.67 -0.32 1.34 -1 1 C-0.67 0.67 -0.34 0.34 0 0 Z " fill="#2ACE99" transform="translate(197,116)"/>
<path d="M0 0 C-0.99 0.33 -1.98 0.66 -3 1 C-3.33 1.99 -3.66 2.98 -4 4 C-5.41623216 4.05447047 -6.83308191 4.09300508 -8.25 4.125 C-9.03890625 4.14820312 -9.8278125 4.17140625 -10.640625 4.1953125 C-13.20731941 3.9828378 -14.7916067 3.28654105 -17 2 C-11.35600642 -0.44064587 -6.02248522 -0.19289099 0 0 Z " fill="#3BC096" transform="translate(140,122)"/>
<path d="M0 0 C2.475 0.495 2.475 0.495 5 1 C5 1.66 5 2.32 5 3 C6.7492214 3.08142927 8.49954542 3.13938541 10.25 3.1875 C11.22453125 3.22230469 12.1990625 3.25710937 13.203125 3.29296875 C16.37468742 2.96075202 17.67040307 2.11327721 20 0 C20.33 1.32 20.66 2.64 21 4 C12.06724697 7.77009729 12.06724697 7.77009729 7.04296875 5.8984375 C4.54738923 4.39180723 2.23022777 2.87706806 0 1 C0 0.67 0 0.34 0 0 Z " fill="#49BD9B" transform="translate(143,193)"/>
<path d="M0 0 C1.27609323 0.90933009 2.54565553 1.82782853 3.8125 2.75 C4.87404297 3.51570312 4.87404297 3.51570312 5.95703125 4.296875 C8.02977691 6.02482358 9.47375854 7.78526476 11 10 C4.25 9.25 4.25 9.25 2 7 C1.34 6.67 0.68 6.34 0 6 C0 4.02 0 2.04 0 0 Z " fill="#36C798" transform="translate(131,170)"/>
<path d="M0 0 C1.65 0.33 3.3 0.66 5 1 C3.55575365 4.23861303 1.74227753 6.61969163 -0.625 9.25 C-1.25664062 9.95640625 -1.88828125 10.6628125 -2.5390625 11.390625 C-3.02117187 11.92171875 -3.50328125 12.4528125 -4 13 C-4 10.37886292 -3.68707555 8.49064888 -3 6 C-2.34 6 -1.68 6 -1 6 C-0.67 4.02 -0.34 2.04 0 0 Z " fill="#38C69D" transform="translate(184,171)"/>
<path d="M0 0 C0.33 1.32 0.66 2.64 1 4 C2.32 3.67 3.64 3.34 5 3 C5 3.99 5 4.98 5 6 C6.98 5.67 8.96 5.34 11 5 C11.33 4.01 11.66 3.02 12 2 C13.65 1.67 15.3 1.34 17 1 C12.58467057 6.76445787 12.58467057 6.76445787 10.08984375 7.76953125 C7.61110659 8.04288731 6.13325901 7.63824547 3.8125 6.75 C2.77029297 6.37101562 2.77029297 6.37101562 1.70703125 5.984375 C0 5 0 5 -1 2 C-0.67 1.34 -0.34 0.68 0 0 Z " fill="#49B695" transform="translate(168,75)"/>
<path d="M0 0 C0 2 0 4 0 6 C-1.65 5.67 -3.3 5.34 -5 5 C-5 5.99 -5 6.98 -5 8 C-5.66 8 -6.32 8 -7 8 C-8.6875 6.1875 -8.6875 6.1875 -10 4 C-9.67 3.01 -9.34 2.02 -9 1 C-7.68 1.66 -6.36 2.32 -5 3 C-4.319375 2.2575 -4.319375 2.2575 -3.625 1.5 C-2 0 -2 0 0 0 Z " fill="#29CE98" transform="translate(183,123)"/>
<path d="M0 0 C1.80791016 0.00966797 1.80791016 0.00966797 3.65234375 0.01953125 C6.58137709 0.16380208 9.21677436 0.51251764 12.0625 1.1875 C12.0625 1.5175 12.0625 1.8475 12.0625 2.1875 C9.16700497 2.3829384 6.27141002 2.56911395 3.375 2.75 C2.55837891 2.80607422 1.74175781 2.86214844 0.90039062 2.91992188 C-3.23264123 3.17091571 -6.89574282 3.29877743 -10.9375 2.1875 C-7.30518518 -0.10420985 -4.23168244 -0.04967824 0 0 Z " fill="#4AB795" transform="translate(130.9375,40.8125)"/>
<path d="M0 0 C-1.14178128 1.66944521 -2.28852905 3.3354948 -3.4375 5 C-4.07558594 5.928125 -4.71367188 6.85625 -5.37109375 7.8125 C-5.90863281 8.534375 -6.44617188 9.25625 -7 10 C-7.33 10 -7.66 10 -8 10 C-7.51236749 2.56360424 -7.51236749 2.56360424 -5.125 -0.0625 C-3 -1 -3 -1 0 0 Z " fill="#52C7A4" transform="translate(117,116)"/>
<path d="M0 0 C1.98 0 3.96 0 6 0 C6.4125 0.969375 6.825 1.93875 7.25 2.9375 C8.64899168 6.12260099 8.64899168 6.12260099 11.1875 6.875 C11.785625 6.91625 12.38375 6.9575 13 7 C13.33 8.32 13.66 9.64 14 11 C9.96407129 9.63079505 7.32473622 7.80419512 4.1875 4.9375 C3.39730469 4.22464844 2.60710937 3.51179688 1.79296875 2.77734375 C1.20128906 2.19082031 0.60960937 1.60429688 0 1 C0 0.67 0 0.34 0 0 Z " fill="#44BF9A" transform="translate(128,76)"/>
<path d="M0 0 C0.75 1.875 0.75 1.875 1 4 C0.01 5.485 0.01 5.485 -1 7 C-1.66 6.34 -2.32 5.68 -3 5 C-4.65391846 4.60828247 -6.32345271 4.27942455 -8 4 C-9.33529463 3.67461232 -10.66903141 3.34265362 -12 3 C-10.3789897 2.30314502 -8.75303934 1.61777139 -7.125 0.9375 C-6.22007812 0.55464844 -5.31515625 0.17179687 -4.3828125 -0.22265625 C-2 -1 -2 -1 0 0 Z " fill="#55BB9D" transform="translate(200,41)"/>
<path d="M0 0 C4.62 2.31 9.24 4.62 14 7 C10.86650268 8.04449911 10.01031744 7.93423645 7 7 C7 6.34 7 5.68 7 5 C4.69 4.67 2.38 4.34 0 4 C0 2.68 0 1.36 0 0 Z " fill="#41BE97" transform="translate(166,88)"/>
<path d="M0 0 C0.99 0.66 1.98 1.32 3 2 C3 2.99 3 3.98 3 5 C-2.41538462 8.07692308 -2.41538462 8.07692308 -5.375 7.6875 C-5.91125 7.460625 -6.4475 7.23375 -7 7 C-7 6.34 -7 5.68 -7 5 C-4.69 4.34 -2.38 3.68 0 3 C0 2.01 0 1.02 0 0 Z " fill="#63C6AA" transform="translate(139,98)"/>
<path d="M0 0 C0.33 0 0.66 0 1 0 C2.51708428 16.8929385 2.51708428 16.8929385 0 24 C-0.66 23.34 -1.32 22.68 -2 22 C-1.72518661 20.3226907 -1.37409972 18.65799225 -1 17 C-0.72986641 14.06722341 -0.58788224 11.12858211 -0.4375 8.1875 C-0.39431641 7.39923828 -0.35113281 6.61097656 -0.30664062 5.79882812 C-0.20121679 3.86605785 -0.10016906 1.93304974 0 0 Z " fill="#44C6A2" transform="translate(223,154)"/>
<path d="M0 0 C2.78211944 0.37596209 4.5879284 0.67318459 6.8125 2.4375 C8 4 8 4 8 6 C4.25 7.125 4.25 7.125 2 6 C1.27306096 4.02111039 0.60183749 2.02045442 0 0 Z " fill="#2ACE9A" transform="translate(193,108)"/>
<path d="M0 0 C0.66 0.33 1.32 0.66 2 1 C-0.94802633 4.71232945 -3.95715225 8.36548742 -7 12 C-7.99 11.67 -8.98 11.34 -10 11 C-6.7 7.37 -3.4 3.74 0 0 Z " fill="#47BA95" transform="translate(111,104)"/>
<path d="M0 0 C0.33 0.66 0.66 1.32 1 2 C1.66 2 2.32 2 3 2 C3 3.32 3 4.64 3 6 C3.66 6 4.32 6 5 6 C5 7.98 5 9.96 5 12 C1.94063363 8.24532309 0 4.91886939 0 0 Z M6 2 C6.66 2 7.32 2 8 2 C7.34 3.32 6.68 4.64 6 6 C5.67 5.34 5.34 4.68 5 4 C5.33 3.34 5.66 2.68 6 2 Z " fill="#45BC96" transform="translate(88,178)"/>
<path d="M0 0 C0.33 0.66 0.66 1.32 1 2 C0.36328125 3.875 0.36328125 3.875 -0.6875 6 C-1.18830078 7.051875 -1.18830078 7.051875 -1.69921875 8.125 C-3.21910635 10.31582897 -4.55687434 11.01246289 -7 12 C-5.44298069 7.32894208 -2.91552627 3.91294315 0 0 Z " fill="#46BE97" transform="translate(100,116)"/>
<path d="M0 0 C2.31 0.33 4.62 0.66 7 1 C7 1.66 7 2.32 7 3 C4.03 3.66 1.06 4.32 -2 5 C-2 5.66 -2 6.32 -2 7 C-2.99 7 -3.98 7 -5 7 C-5 6.34 -5 5.68 -5 5 C-4.360625 4.731875 -3.72125 4.46375 -3.0625 4.1875 C-0.66868314 3.11332248 -0.66868314 3.11332248 0 0 Z " fill="#44C29B" transform="translate(126,130)"/>
<path d="M0 0 C0.99 0.33 1.98 0.66 3 1 C2.67 3.31 2.34 5.62 2 8 C-0.3431213 7.74438677 -2.67843403 7.40729228 -5 7 C-5.33 6.34 -5.66 5.68 -6 5 C-4.35 4.67 -2.7 4.34 -1 4 C-0.67 2.68 -0.34 1.36 0 0 Z " fill="#29CF9D" transform="translate(186,127)"/>
<path d="M0 0 C1.0209375 0.2165625 1.0209375 0.2165625 2.0625 0.4375 C8.57212596 1.89924898 8.57212596 1.89924898 15 1 C15 1.66 15 2.32 15 3 C12.35541621 4.32229189 10.32238699 4.09677194 7.375 4.0625 C6.37210938 4.05347656 5.36921875 4.04445312 4.3359375 4.03515625 C3.56507813 4.02355469 2.79421875 4.01195312 2 4 C1.34 2.68 0.68 1.36 0 0 Z " fill="#4AB994" transform="translate(146,183)"/>
<path d="M0 0 C1.52453435 2.94017338 2.95157395 5.85472185 4 9 C3.67 9.99 3.34 10.98 3 12 C2.01 11.67 1.02 11.34 0 11 C-1.35015859 6.94952424 -0.62084998 4.2079832 0 0 Z " fill="#42BF9A" transform="translate(98,171)"/>
<path d="M0 0 C0 3 0 3 -2.375 5.5625 C-3.24125 6.366875 -4.1075 7.17125 -5 8 C-5.66 8.66 -6.32 9.32 -7 10 C-8.32 9.67 -9.64 9.34 -11 9 C-7.37 6.03 -3.74 3.06 0 0 Z " fill="#44C097" transform="translate(173,174)"/>
<path d="M0 0 C0.66 0 1.32 0 2 0 C4.08989546 5.31329355 5.6112798 9.28728072 4 15 C3.67 15 3.34 15 3 15 C2.49564306 13.0636296 1.99666126 11.12585854 1.5 9.1875 C1.2215625 8.10855469 0.943125 7.02960938 0.65625 5.91796875 C0 3 0 3 0 0 Z " fill="#44BE98" transform="translate(209,139)"/>
<path d="M0 0 C-0.33 1.32 -0.66 2.64 -1 4 C-1.66 4 -2.32 4 -3 4 C-3.33 3.34 -3.66 2.68 -4 2 C-7.02934491 1.34227572 -7.02934491 1.34227572 -10 1 C-10 0.34 -10 -0.32 -10 -1 C-5.92224809 -1.9267618 -3.57818963 -2.33958553 0 0 Z " fill="#50B59B" transform="translate(194,124)"/>
<path d="M0 0 C3.3 1.65 6.6 3.3 10 5 C7 6 7 6 4.5 5.4375 C1.7600266 4.66177482 1.7600266 4.66177482 -1 7 C-0.67 4.69 -0.34 2.38 0 0 Z " fill="#3CBE94" transform="translate(155,82)"/>
<path d="M0 0 C2.9719385 1.12451727 5.33440687 2.22293791 8 4 C8 4.66 8 5.32 8 6 C7.01 6 6.02 6 5 6 C5 5.34 5 4.68 5 4 C3.35 4.33 1.7 4.66 0 5 C-0.5625 3.0625 -0.5625 3.0625 -1 1 C-0.67 0.67 -0.34 0.34 0 0 Z " fill="#3DC298" transform="translate(116,199)"/>
<path d="M0 0 C0.33 0.66 0.66 1.32 1 2 C0.34 2 -0.32 2 -1 2 C-1.185625 2.61875 -1.37125 3.2375 -1.5625 3.875 C-3.71437233 7.05602866 -6.37533763 7.19451947 -10 8 C-6.88983545 4.71211176 -3.98381075 2.16264012 0 0 Z " fill="#42BD96" transform="translate(123,96)"/>
<path d="M0 0 C3 1 3 1 4 3 C4.99 3.33 5.98 3.66 7 4 C8.75 6.4375 8.75 6.4375 10 9 C9.67 9.66 9.34 10.32 9 11 C7.86874978 9.92319498 6.74525081 8.83824365 5.625 7.75 C4.99851562 7.14671875 4.37203125 6.5434375 3.7265625 5.921875 C2.02689839 4.0299412 1.01540134 2.31798691 0 0 Z " fill="#49BA96" transform="translate(119,171)"/>
<path d="M0 0 C2.475 0.495 2.475 0.495 5 1 C5.0825 1.61875 5.165 2.2375 5.25 2.875 C5.79994195 5.1765144 5.79994195 5.1765144 8 6.125 C8.66 6.41375 9.32 6.7025 10 7 C10.33 7.66 10.66 8.32 11 9 C8.03469503 7.64199529 5.70868729 6.07571737 3.25 3.9375 C2.63640625 3.41027344 2.0228125 2.88304687 1.390625 2.33984375 C0.93171875 1.89769531 0.4728125 1.45554688 0 1 C0 0.67 0 0.34 0 0 Z " fill="#48B894" transform="translate(129,182)"/>
<path d="M0 0 C3.40843742 2.88406243 4.86591384 4.3708265 5.8125 8.8125 C5.9053125 10.3903125 5.9053125 10.3903125 6 12 C4 9 4 9 4 6 C2.68 5.67 1.36 5.34 0 5 C0 3.35 0 1.7 0 0 Z " fill="#44BC98" transform="translate(193,128)"/>
<path d="M0 0 C0.99 0.33 1.98 0.66 3 1 C1.02 5.455 1.02 5.455 -1 10 C-2.08711385 5.6515446 -1.94219172 3.88438343 0 0 Z " fill="#3FBF97" transform="translate(102,129)"/>
<path d="M0 0 C-8.261959 4.59225513 -8.261959 4.59225513 -13 4 C-8.74310869 0.5314219 -5.44072603 -1.61377467 0 0 Z " fill="#47BB98" transform="translate(171,123)"/>
<path d="M0 0 C1 3 1 3 0 6 C-2.64 4.68 -5.28 3.36 -8 2 C-5.3260876 1.10869587 -2.76276177 0.52268466 0 0 Z " fill="#41C198" transform="translate(176,101)"/>
<path d="M0 0 C1.98 0.495 1.98 0.495 4 1 C4 2.32 4 3.64 4 5 C2.35 5.66 0.7 6.32 -1 7 C-1 6.34 -1 5.68 -1 5 C-0.34 5 0.32 5 1 5 C0.67 3.35 0.34 1.7 0 0 Z " fill="#39C89F" transform="translate(135,96)"/>
<path d="M0 0 C3.14958831 3.42346555 3.56179109 6.44262737 4 11 C3.67 10.34 3.34 9.68 3 9 C2.34 9 1.68 9 1 9 C0.67 6.03 0.34 3.06 0 0 Z " fill="#46BE97" transform="translate(218,133)"/>
<path d="M0 0 C1 3 1 3 0.0625 5.1875 C-0.4634375 6.0846875 -0.4634375 6.0846875 -1 7 C-2.32 5.68 -3.64 4.36 -5 3 C-4.01 3 -3.02 3 -2 3 C-2 2.34 -2 1.68 -2 1 C-1.34 0.67 -0.68 0.34 0 0 Z " fill="#64C8AB" transform="translate(126,134)"/>
<path d="M0 0 C1.32 0.33 2.64 0.66 4 1 C-0.625 5 -0.625 5 -4 5 C-4 4.01 -4 3.02 -4 2 C-2.68 2 -1.36 2 0 2 C0 1.34 0 0.68 0 0 Z " fill="#47C199" transform="translate(169,189)"/>
<path d="M0 0 C0.99 0.33 1.98 0.66 3 1 C1.125 6.75 1.125 6.75 0 9 C-0.66 9 -1.32 9 -2 9 C-2.33 8.01 -2.66 7.02 -3 6 C-2.01 6 -1.02 6 0 6 C0 4.02 0 2.04 0 0 Z " fill="#44C59A" transform="translate(195,51)"/>
<path d="M0 0 C3.26460973 1.80412643 4.88929795 2.83394693 7 6 C4.69 5.67 2.38 5.34 0 5 C0.66 4.67 1.32 4.34 2 4 C2 3.34 2 2.68 2 2 C1.34 2 0.68 2 0 2 C0 1.34 0 0.68 0 0 Z " fill="#3DBB94" transform="translate(135,174)"/>
</svg>
