<svg version="1.1" xmlns="http://www.w3.org/2000/svg" width="322" height="236">

<path d="M0 0 C1.35752407 4.07257222 -0.06855192 6.67784992 -1.5625 10.5 C-1.84061523 11.21760498 -2.11873047 11.93520996 -2.40527344 12.67456055 C-6.55484395 23.14577903 -11.76188566 34.07141424 -21 41 C-25.45618477 40.84997882 -28.33609714 39.47852252 -32 37 C-31.319375 36.319375 -30.63875 35.63875 -29.9375 34.9375 C-29.25494141 34.24914062 -29.25494141 34.24914062 -28.55859375 33.546875 C-27.48276435 32.47913455 -26.39039783 31.42789045 -25.28515625 30.390625 C-21.0236961 26.32498687 -17.89044151 22.12820267 -15 17 C-15.54269531 17.15726563 -16.08539063 17.31453125 -16.64453125 17.4765625 C-27.45122361 19.87804969 -38.14189068 17.12864446 -48.70947266 14.86010742 C-56.84842999 13.14037474 -64.68191733 12.14877871 -73 12 C-66.70001976 29.7881795 -46.11788933 41.07729237 -30 49 C-7.52920069 60.96374672 14.35943611 75.48199442 22.3125 100.9375 C22.89297535 102.95324353 23.45795466 104.97358433 24 107 C24.19335938 107.63292969 24.38671875 108.26585937 24.5859375 108.91796875 C27.36071922 122.87040892 23.85023682 137.32200306 16.75 149.41015625 C10.91234745 158.0493608 3.68629368 164.33171785 -5 170 C-6.09248047 170.72509766 -6.09248047 170.72509766 -7.20703125 171.46484375 C-17.46455357 177.7259288 -29.16287138 179.60673991 -41 180 C-41 176.7 -41 173.4 -41 170 C-39.71867187 169.79246094 -38.43734375 169.58492187 -37.1171875 169.37109375 C-20.37183531 166.46979994 -6.21713785 161.53139757 4.8046875 147.7421875 C13.31724039 135.58744781 15.60294263 122.92111741 13.5 108.25 C9.13617443 89.65890752 -3.46413608 76.88047033 -19.25537109 67.04248047 C-24.14665587 64.11975643 -29.19778184 61.49575068 -34.26464844 58.89355469 C-52.64093699 49.43136897 -73.76683172 37.97121943 -82 18 C-82.36996094 17.17628906 -82.73992187 16.35257813 -83.12109375 15.50390625 C-84.0427544 12.87819746 -84.20757533 10.9537737 -84.125 8.1875 C-84.10695313 7.39730469 -84.08890625 6.60710938 -84.0703125 5.79296875 C-84.03550781 4.90544922 -84.03550781 4.90544922 -84 4 C-72.55793597 -1.49219073 -60.22966632 1.01724171 -48.25 3.5 C-33.25556692 6.36589476 -19.27843721 8.75698065 -5 2 C-3.33656159 1.32531869 -1.67071412 0.65645758 0 0 Z " fill="#2CCE99" transform="translate(199,41)" data-index="1" style="opacity: 1; visibility: hidden;"></path>

<path d="M0 0 C1.44545269 0.80449466 2.86300412 1.66095268 4.25 2.5625 C4.95640625 3.01753906 5.6628125 3.47257812 6.390625 3.94140625 C6.92171875 4.29074219 7.4528125 4.64007813 8 5 C5.57273482 7.42726518 3.3588431 8.18084398 0.1875 9.5 C-16.22361808 16.99755726 -27.17797888 29.20566139 -34 46 C-35.80691088 51.93699288 -36.30990565 57.25224206 -36.25 63.4375 C-36.25773437 64.23220703 -36.26546875 65.02691406 -36.2734375 65.84570312 C-36.22930781 79.40455152 -31.71860763 89.88911975 -22.390625 99.7421875 C-18.87376212 103.06366911 -15.21877577 105.64879516 -11 108 C-10.36191406 108.36609375 -9.72382812 108.7321875 -9.06640625 109.109375 C-1.32145769 113.03469006 7.55888831 114.28810248 16 116 C16 118.97 16 121.94 16 125 C1.51593452 126.38089607 -13.59264189 120.63784064 -24.92578125 111.75390625 C-37.41520916 101.19316589 -44.46790406 89.31529745 -47 73 C-48.38640486 53.95923627 -44.78883575 37.27809295 -32.7265625 22.1484375 C-30.55053689 19.69019697 -28.30629406 17.33570036 -26 15 C-25.42636719 14.36578125 -24.85273437 13.7315625 -24.26171875 13.078125 C-19.54601827 7.99102091 -13.97521927 4.46800629 -8 1 C-7.31292969 0.58363281 -6.62585938 0.16726562 -5.91796875 -0.26171875 C-3.45782363 -1.20869925 -2.43852356 -0.94988999 0 0 Z " fill="#2ECE9A" transform="translate(133,95)" data-index="3" style="visibility: hidden;"></path>

<path d="M0 0 C1.28497537 3.85492611 0.4052209 5.40346836 -0.9375 9.1875 C-1.31777344 10.27417969 -1.69804687 11.36085938 -2.08984375 12.48046875 C-2.39019531 13.31191406 -2.69054687 14.14335938 -3 15 C-3.87840996 11.90279155 -3.99435406 10.09354597 -3 7 C-3.66 7 -4.32 7 -5 7 C-5 6.34 -5 5.68 -5 5 C-7.31 5.33 -9.62 5.66 -12 6 C-9.4347341 4.28982274 -7.12039035 3.09582189 -4.3125 1.875 C-3.50425781 1.52179687 -2.69601563 1.16859375 -1.86328125 0.8046875 C-1.24839844 0.53914063 -0.63351563 0.27359375 0 0 Z " fill="#48CEA3" transform="translate(199,41)" data-index="5" style="visibility: hidden;"></path>

<path d="M0 0 C0.66 0.33 1.32 0.66 2 1 C0.25 5.875 0.25 5.875 -2 7 C-2 11.62 -2 16.24 -2 21 C-4.83183525 18.16816475 -4.36782849 15.41155565 -4.375 11.625 C-4.39949219 10.95210937 -4.42398438 10.27921875 -4.44921875 9.5859375 C-4.47025901 6.02311969 -4.26129882 4.31981361 -1.9765625 1.5234375 C-1.32429688 1.02070313 -0.67203125 0.51796875 0 0 Z " fill="#D1F6EE" transform="translate(125,134)" data-index="7" style="visibility: hidden;"></path>

<path d="M0 0 C-1.35236577 2.93879484 -2.89942659 5.29232911 -5 7.75 C-5.515625 8.36359375 -6.03125 8.9771875 -6.5625 9.609375 C-8 11 -8 11 -10 11 C-8.64763423 8.06120516 -7.10057341 5.70767089 -5 3.25 C-4.484375 2.63640625 -3.96875 2.0228125 -3.4375 1.390625 C-2 0 -2 0 0 0 Z " fill="#CDF6EB" transform="translate(117,115)" data-index="9" style="visibility: hidden;"></path>

<path d="M0 0 C2.125 0.9375 2.125 0.9375 4 2 C4 2.66 4 3.32 4 4 C3.34 4 2.68 4 2 4 C1.67 4.66 1.34 5.32 1 6 C-2.465 4.02 -2.465 4.02 -6 2 C-5.38125 1.855625 -4.7625 1.71125 -4.125 1.5625 C-1.96741678 1.06847775 -1.96741678 1.06847775 0 0 Z " fill="#E4FBF5" transform="translate(190,122)" data-index="11" style="visibility: hidden;"></path>

<path d="M0 0 C4.95 1.98 4.95 1.98 10 4 C10 4.33 10 4.66 10 5 C7.03 5 4.06 5 1 5 C1.33 4.01 1.66 3.02 2 2 C1.34 2 0.68 2 0 2 C0 1.34 0 0.68 0 0 Z " fill="#3CCC9D" transform="translate(146,183)" data-index="13" style="visibility: hidden;"></path>

<path d="M0 0 C0.33 0.66 0.66 1.32 1 2 C-2.96 3.98 -2.96 3.98 -7 6 C-7.66 5.34 -8.32 4.68 -9 4 C-6.03 2.68 -3.06 1.36 0 0 Z " fill="#C0F0E4" transform="translate(141,100)" data-index="15" style="visibility: hidden;"></path>
</svg>